<?xml version="1.0" encoding="utf-8"?>
<!-- Generator: Adobe Illustrator 22.0.1, SVG Export Plug-In . SVG Version: 6.00 Build 0)  -->
<svg version="1.1" id="Слой_1" xmlns="http://www.w3.org/2000/svg" xmlns:xlink="http://www.w3.org/1999/xlink" x="0px" y="0px"
	 viewBox="0 0 118.4 23.2" style="enable-background:new 0 0 118.4 23.2;" xml:space="preserve">
<style type="text/css">
	.st0{fill:#A782E9;}
	.st1{fill:#FFFFFF;}
</style>
<g>
	<path class="st0" d="M16.5,11.2h4.7v9.1c-1.2,0.9-2.6,1.6-4.2,2.1c-1.6,0.5-3.2,0.7-4.8,0.7c-2.3,0-4.4-0.5-6.3-1.5
		s-3.3-2.4-4.4-4.1c-1.1-1.8-1.6-3.7-1.6-6c0-2.2,0.5-4.2,1.6-6C2.6,3.9,4.1,2.5,6,1.5c1.9-1,4-1.5,6.3-1.5c2,0,3.7,0.3,5.3,1
		c1.6,0.7,2.9,1.6,4,2.9l-3.3,3.1c-1.6-1.7-3.5-2.5-5.8-2.5c-1.4,0-2.7,0.3-3.8,0.9c-1.1,0.6-2,1.4-2.6,2.5
		c-0.6,1.1-0.9,2.3-0.9,3.7c0,1.4,0.3,2.6,0.9,3.7c0.6,1.1,1.5,1.9,2.6,2.5c1.1,0.6,2.4,0.9,3.8,0.9c1.5,0,2.8-0.3,4-1V11.2z"/>
	<path class="st0" d="M41.2,11.2H46v9.1c-1.2,0.9-2.6,1.6-4.2,2.1c-1.6,0.5-3.2,0.7-4.8,0.7c-2.3,0-4.4-0.5-6.3-1.5
		s-3.3-2.4-4.4-4.1c-1.1-1.8-1.6-3.7-1.6-6c0-2.2,0.5-4.2,1.6-6c1.1-1.8,2.5-3.1,4.4-4.1c1.9-1,4-1.5,6.3-1.5c2,0,3.7,0.3,5.3,1
		c1.6,0.7,2.9,1.6,4,2.9L43,6.9c-1.6-1.7-3.5-2.5-5.8-2.5c-1.4,0-2.7,0.3-3.8,0.9c-1.1,0.6-2,1.4-2.6,2.5c-0.6,1.1-0.9,2.3-0.9,3.7
		c0,1.4,0.3,2.6,0.9,3.7c0.6,1.1,1.5,1.9,2.6,2.5c1.1,0.6,2.4,0.9,3.8,0.9c1.5,0,2.8-0.3,4-1V11.2z"/>
	<path class="st1" d="M49,22.5c-0.3-0.3-0.4-0.6-0.4-1c0-0.4,0.1-0.7,0.4-1c0.3-0.2,0.6-0.4,1-0.4s0.7,0.1,1,0.4
		c0.3,0.2,0.4,0.6,0.4,1c0,0.4-0.1,0.7-0.4,1s-0.6,0.4-1,0.4S49.2,22.8,49,22.5z"/>
	<path class="st1" d="M54.5,16h-2.7v-1.6h7.3V16h-2.7v6.8h-1.9V16z"/>
	<path class="st1" d="M66.7,21.2v1.6h-6.5v-8.4h6.3v1.6h-4.4v1.8H66v1.5h-3.9v1.9H66.7z"/>
	<path class="st1" d="M75.9,22.8l0-5l-2.5,4.2h-0.9l-2.5-4v4.9h-1.8v-8.4h1.6l3.1,5.2l3.1-5.2h1.6l0,8.4H75.9z"/>
	<path class="st1" d="M85.3,14.8c0.5,0.2,1,0.6,1.3,1.1s0.4,1,0.4,1.6c0,0.6-0.1,1.2-0.4,1.6s-0.7,0.8-1.3,1.1
		c-0.5,0.2-1.2,0.4-1.9,0.4h-1.7v2.3h-1.9v-8.4h3.6C84.1,14.4,84.7,14.5,85.3,14.8z M84.5,18.5c0.3-0.3,0.5-0.6,0.5-1.1
		c0-0.5-0.2-0.8-0.5-1.1c-0.3-0.3-0.7-0.4-1.3-0.4h-1.6v2.9h1.6C83.8,18.9,84.2,18.8,84.5,18.5z"/>
	<path class="st1" d="M88.4,14.4h1.9v6.8h4.2v1.6h-6.2V14.4z"/>
	<path class="st1" d="M101.2,21h-3.9l-0.7,1.8h-2l3.7-8.4h1.9l3.8,8.4h-2L101.2,21z M100.6,19.5l-1.3-3.2l-1.3,3.2H100.6z"/>
	<path class="st1" d="M106.2,16h-2.7v-1.6h7.3V16h-2.7v6.8h-1.9V16z"/>
	<path class="st1" d="M118.4,21.2v1.6h-6.5v-8.4h6.3v1.6h-4.4v1.8h3.9v1.5h-3.9v1.9H118.4z"/>
</g>
</svg>
